# xmcd
#
# Track frame offsets:
#	150
#	13817
#	30542
#	44652
#	59787
#	71482
#	82510
#	98195
#	108867
#	127995
#	143490
#	153882
#	168477
#	182405
#
# Disc length: 2596 seconds
#
# Revision: 1
# Processed by: cddbd v1.5PL3 Copyright (c) Steve Scherf et al.
# Submitted via: EasyCDDAExtractor 5.0.6
#
DISCID=ac0a220e
DTITLE=余天 - 20年來最暢銷國語金曲系列1
DYEAR=1900
DGENRE=POP
TTITLE0=我需要安慰
TTITLE1=懷念媽媽
TTITLE2=告訴你愛的時候
TTITLE3=讓回憶隨風飄
TTITLE4=永遠在一起
TTITLE5=給我溫情吧!愛人
TTITLE6=不
TTITLE7=含淚\的微笑
TTITLE8=海邊
TTITLE9=星夜的離別
TTITLE10=給我一個微笑
TTITLE11=我倆多美好
TTITLE12=請你放開我
TTITLE13=我把愛情收回來
EXTD=
EXTT0=
EXTT1=
EXTT2=
EXTT3=
EXTT4=
EXTT5=
EXTT6=
EXTT7=
EXTT8=
EXTT9=
EXTT10=
EXTT11=
EXTT12=
EXTT13=
PLAYORDER=
